# xmcd CD database file
#
# Track frame offsets:
#	150
#	39215
#	66683
#	104272
#	144816
#	175291
#	207818
#	253246
#
# Disc length: 3955 seconds
#
# Revision: 0
# Processed by: cddbd v1.5.2PL0 Copyright (c) Steve Scherf et al.
# Submitted via: CDex 1.51
#
DISCID=700f7108
DTITLE=Brilliant Corners - Two Roads
DYEAR=1997
DGENRE=Jazz
TTITLE0=Struttin' With Some Barbequed Tofu
TTITLE1=Interloper
TTITLE2=On The River
TTITLE3=Sidesteppin'
TTITLE4=Gray Clouds
TTITLE5=Waking Up Is Hard To Do
TTITLE6=Still The Same
TTITLE7=Two Roads
EXTD=YEAR: 1997
EXTT0=
EXTT1=
EXTT2=
EXTT3=
EXTT4=
EXTT5=
EXTT6=
EXTT7=
PLAYORDER=
